<svg height="430pt" viewBox="0 -112 430.56492 430" width="430pt" xmlns="http://www.w3.org/2000/svg"><path d="m386.957031 103.972656c3.328125-26.070312-9.511719-51.550781-32.441406-64.394531-22.933594-12.839844-51.367187-10.46875-71.855469 5.996094-22.6875-33.546875-62.925781-50.679688-102.832031-43.785157-39.90625 6.894532-72.0625 36.539063-82.179687 75.75-25.101563-12.292968-55.175782-7.925781-75.746094 11-20.570313 18.921876-27.421875 48.53125-17.261719 74.566407 10.164063 26.039062 35.261719 43.175781 63.210937 43.164062h311.203126c26.894531.03125 49.277343-20.660156 51.355468-47.476562 2.078125-26.816407-16.851562-50.707031-43.433594-54.816407zm0 0" fill="#d9ecf2"/><g fill="#bdd9e5"><path d="m386.957031 103.972656c2.449219-18.394531-3.183593-36.945312-15.449219-50.867187-12.261718-13.925781-29.957031-21.855469-48.511718-21.746094-6.917969.007813-13.792969 1.136719-20.351563 3.339844 29.328125 9.5625 47.652344 38.695312 43.574219 69.273437 26.578125 4.109375 45.511719 28 43.433594 54.816406-2.078125 26.816407-24.460938 47.507813-51.359375 47.476563h40.738281c26.898438.03125 49.28125-20.660156 51.359375-47.476563 2.078125-26.816406-16.851563-50.707031-43.433594-54.816406zm0 0"/><path d="m252.972656 57.472656c8.367188-3.886718 22.621094-9.464844 29.6875-11.902344-3.28125-4.695312-6.890625-9.152343-10.800781-13.335937-24.285156-25.65625-60.097656-36.953125-94.710937-29.882813 26.855468 5.433594 60.605468 20.597657 75.824218 55.121094zm0 0"/><path d="m71.84375 70.691406c2.898438 21.367188 12.507812 41.257813 27.449219 56.800782-4.496094-16.289063-5.058594-33.417969-1.644531-49.96875-8.0625-3.96875-16.832032-6.292969-25.804688-6.832032zm0 0"/></g></svg>